<svg width="403" height="191" viewBox="0 0 403 191" fill="none" xmlns="http://www.w3.org/2000/svg">
<path d="M77 123C42.5 123.002 18 123.002 18 123.002C18 123.002 24.5 122 28.5 116.502C32.5 111.004 49 56.5 52.5 51.002C56 45.5039 60.5 45.502 60.5 45.502H118.5C118.5 45.502 112.275 46.5115 109 52.502C103.552 62.4691 91.5 104.502 87.5 112.502C83.5 120.502 82.5 121.998 77 123Z" fill="#CAAD78"/>
<path fill-rule="evenodd" clip-rule="evenodd" d="M71.558 41H63C63 41 55.5 41 51 47.5C48.713 50.8034 43.1975 65.9883 37.8007 80.8465C36.8001 83.6012 35.8036 86.3446 34.8326 88.9991C13.8605 89 0 89 0 89C0 89 5.43284 88.1597 8.77612 83.5484C10.5585 81.0901 15.3101 66.9505 19.8018 53.5844C23.7356 41.8785 27.47 30.7659 28.8358 28.6129C31.7612 24.0016 35.5224 24 35.5224 24H84C84 24 78.7967 24.8467 76.0597 29.871C74.8652 32.0637 73.2909 36.1069 71.558 41Z" fill="#E0D2B5"/>
<path d="M144.833 55.9883H148.57V53.8751H144.833V50.6862H142.569V53.8751H138.738V55.9883H142.569V60.3682H138.002V62.4813H149.306V60.3682H144.833V55.9883ZM140.172 47.6702C140.436 46.9787 140.681 46.2871 140.889 45.5763L138.53 45C138.303 45.8837 138.02 46.7673 137.7 47.6702H132.604V49.8602H136.699C135.567 52.0694 133.982 54.0864 132 55.3927C132.359 55.9498 132.868 56.9872 133.113 57.6019C133.717 57.1793 134.246 56.7567 134.774 56.2572V62.9424H137.058V53.6446C137.926 52.4728 138.643 51.1857 139.266 49.8602H149.363V47.6702H140.172Z" fill="#595959"/>
<path d="M163.197 54.2785C162.385 55.7385 161.253 56.8911 159.875 57.8132C158.516 56.8527 157.459 55.6809 156.704 54.2785H163.197ZM164.857 51.9541L164.461 52.031H160.932V49.8026H167.839V47.5358H160.932V45.0384H158.611V47.5358H151.741V49.8026H158.611V52.031H152.685V54.2785H156.176L154.515 54.8549C155.383 56.4877 156.421 57.8709 157.686 59.0043C155.742 59.8687 153.458 60.4258 150.986 60.7524C151.42 61.2711 152.005 62.3469 152.213 62.9616C154.968 62.4813 157.535 61.7129 159.743 60.5219C161.762 61.7513 164.254 62.5582 167.254 63C167.575 62.3276 168.217 61.3095 168.689 60.7716C166.084 60.4835 163.857 59.9072 161.989 59.0427C163.933 57.5059 165.48 55.4888 166.424 52.857L164.857 51.9541Z" fill="#595959"/>
<path d="M175.69 53.1644L174.199 53.587V50.7631H175.804V48.6499H174.199V45.0384H172.142V48.6499H170.01V50.7631H172.142V54.1249C171.218 54.3554 170.387 54.5667 169.708 54.7396L170.198 56.9296L172.142 56.3533V60.4066C172.142 60.6564 172.048 60.7332 171.821 60.7332C171.595 60.7524 170.953 60.7524 170.255 60.714C170.538 61.3287 170.783 62.27 170.84 62.8271C172.048 62.8463 172.878 62.7695 173.426 62.4045C174.011 62.0395 174.199 61.4824 174.199 60.4258V55.7577C174.803 55.5848 175.388 55.3927 175.973 55.2199L175.69 53.1644ZM177.295 57.7172C178.068 58.7353 178.936 60.1377 179.276 61.079L181.182 59.9648C180.805 59.0235 179.861 57.6596 179.069 56.699L177.295 57.7172ZM187.542 53.0299V50.9552H182.9V49.2839H186.712V47.2092H182.9V45.1153H180.767V47.2092H176.898V49.2839H180.767V50.9552H176.087V53.0299H183.202V54.5475H176.257V56.6222H183.202V60.5027C183.202 60.7716 183.126 60.8292 182.824 60.8292C182.541 60.8485 181.56 60.8485 180.711 60.81C180.975 61.4248 181.258 62.3276 181.352 62.9616C182.692 62.9616 183.711 62.9232 184.391 62.5966C185.127 62.2508 185.334 61.6937 185.334 60.5411V56.6222H187.41V54.5475H185.334V53.0299H187.542Z" fill="#595959"/>
<path d="M206 48.7268V46.4216H189.184V48.7268H195.997V62.9039H198.413V53.7791C200.319 54.8933 202.471 56.2956 203.565 57.2753L205.226 55.1814C203.792 53.9904 200.829 52.3383 198.791 51.301L198.413 51.7428V48.7268H206Z" fill="#595959"/>
<path d="M144.969 89.7868V88.2879H142.025V89.7868H138.521C139.154 89.1582 139.762 88.4813 140.248 87.7802H147.11C147.621 88.4813 148.205 89.1582 148.862 89.7868H144.969ZM139.762 84.3473H147.378V85.4352H139.762V84.3473ZM147.378 78.2308V79.2945H139.762V78.2308H147.378ZM139.762 81.2769H147.378V82.3407H139.762V81.2769ZM154.848 87.7802V85.4352H150.346V78.2308H153.68V75.9099H150.346V74.0967H147.378V75.9099H139.762V74.0967H136.866V75.9099H133.509V78.2308H136.866V85.4352H132.243V87.7802H136.915C135.577 89.0615 133.776 90.1736 132 90.8264C132.608 91.3582 133.436 92.3494 133.849 93.0264C135.212 92.422 136.526 91.5758 137.718 90.5604V92.0593H142.025V93.6308H134.385V96H152.925V93.6308H144.969V92.0593H149.397V90.2703C150.589 91.3341 151.903 92.2044 153.217 92.8088C153.631 92.1077 154.507 91.1165 155.14 90.5846C153.388 89.9802 151.684 88.9407 150.395 87.7802H154.848Z" fill="#383837"/>
<path d="M166.211 88.6505V93.4857H162.926L164.921 92.6396C164.556 91.5275 163.607 89.8835 162.682 88.6505H166.211ZM163.461 81.2769C165.213 79.8264 166.721 78.2549 167.768 76.8044C168.838 78.2549 170.444 79.8264 172.245 81.2769H163.461ZM172.634 88.6505C172.099 89.9319 171.126 91.6967 170.323 92.833L171.904 93.4857H169.252V88.6505H176.746V86.1846H169.252V83.7912H173.899V82.5341C175.116 83.4044 176.381 84.2022 177.598 84.8308C178.133 83.9363 178.79 82.9692 179.52 82.244C175.676 80.6967 171.758 77.6505 169.13 74H166.138C164.337 76.9011 160.444 80.5275 156.307 82.5341C156.94 83.1385 157.743 84.178 158.108 84.8549C159.349 84.2022 160.59 83.4286 161.733 82.6066V83.7912H166.211V86.1846H158.814V88.6505H162.536L160.322 89.5934C161.174 90.778 161.977 92.3978 162.342 93.4857H157.597V95.9516H178.182V93.4857H172.683C173.534 92.4703 174.483 90.9956 175.408 89.6659L172.634 88.6505Z" fill="#383837"/>
<path d="M138.166 116.279H147.532V119.177H138.166V116.279ZM140.972 123.048C142.339 124.022 143.985 125.529 144.773 126.619L146.79 124.857C146.048 123.953 144.658 122.701 143.313 121.773H150.685V113.706H147.393C148.065 112.663 148.761 111.504 149.387 110.368L146.512 109.185C146.048 110.576 145.214 112.338 144.403 113.706H140.137L141.458 113.08C141.087 111.944 140.067 110.391 139.094 109.255L136.706 110.368C137.471 111.388 138.259 112.663 138.7 113.706H135.153V121.773H142.548L140.972 123.048ZM134.573 129.655C135.57 128.172 136.266 125.9 136.544 123.86L133.924 123.373C133.6 125.228 132.881 127.337 132 128.519L134.573 129.655ZM141.992 128.149C140.624 128.149 140.369 128.033 140.369 127.291V123.048H137.425V127.337C137.425 129.864 138.306 130.652 141.713 130.652H146.234C148.83 130.652 149.642 129.934 149.989 127.082C149.201 126.92 147.996 126.503 147.393 126.062C147.254 127.847 147.045 128.149 145.979 128.149H141.992ZM148.459 123.929C149.781 125.552 151.102 127.731 151.519 129.215L153.838 127.847C153.351 126.317 151.937 124.277 150.592 122.701L148.459 123.929Z" fill="#383837"/>
<path d="M176.765 120.336C176.139 118.899 174.679 116.72 173.45 115.12L171.34 116.163C171.688 116.673 172.059 117.23 172.43 117.809L167.84 118.18C168.698 117.137 169.648 115.839 170.483 114.703H176.51V112.246H170.135L171.619 111.828C171.41 111.133 170.9 109.974 170.459 109.116L167.863 109.765C168.188 110.53 168.535 111.527 168.767 112.246H163.644V114.703H167.26C166.31 115.955 165.174 117.415 164.757 117.832C164.247 118.273 163.574 118.482 163.064 118.597C163.319 119.177 163.76 120.568 163.876 121.24C164.664 120.893 165.8 120.73 173.682 119.919C173.983 120.522 174.261 121.078 174.447 121.565L176.765 120.336ZM159.888 121.194C161.326 119.386 162.717 117.346 163.852 115.329L161.465 113.822C161.071 114.656 160.63 115.468 160.19 116.233L158.497 116.372C159.772 114.587 161.001 112.361 161.859 110.298L159.054 109C158.266 111.643 156.782 114.448 156.295 115.166C155.785 115.908 155.414 116.395 154.904 116.511C155.252 117.299 155.715 118.69 155.878 119.27C156.225 119.084 156.782 118.945 158.59 118.737C157.895 119.757 157.292 120.522 156.967 120.869C156.249 121.727 155.739 122.214 155.136 122.353C155.46 123.048 155.878 124.37 156.017 124.903C156.643 124.532 157.593 124.208 163.111 122.933C163.041 122.376 163.018 121.287 163.111 120.522L159.888 121.194ZM163.064 124.602C160.19 125.599 157.222 126.665 155.275 127.221L155.901 129.957C158.15 129.122 160.978 128.009 163.574 126.92L163.064 124.602ZM165.823 120.869C165.684 124.81 165.383 127.244 161.859 128.728C162.462 129.238 163.203 130.305 163.551 131C167.747 129.076 168.35 125.738 168.535 120.869H165.823ZM173.264 128.172C172.94 128.172 172.894 128.079 172.894 127.36V120.846H170.181V127.384C170.181 129.702 170.668 130.49 172.731 130.49H174.331C176.093 130.49 176.695 129.447 176.904 125.807C176.209 125.622 175.119 125.181 174.563 124.741C174.493 127.662 174.424 128.172 174.053 128.172H173.264Z" fill="#383837"/>
<path d="M134.736 147.186H138.723V159.651H140.694V144.984H132.835V159.744H134.736V147.186ZM137.68 148.288H135.686V155.176C135.686 158.058 135.408 162.064 132 164.149C132.464 164.524 133.09 165.227 133.368 165.649C137.147 163.118 137.68 158.714 137.68 155.199V148.288ZM136.892 161.056C137.912 162.322 139.094 164.032 139.628 165.133L141.274 163.821C140.717 162.767 139.488 161.127 138.445 159.932L136.892 161.056ZM149.365 158.573V159.791H144.519V158.573H149.365ZM144.519 162.931V161.806H149.365V162.931H144.519ZM142.201 165.836H144.519V164.969H149.365V165.742H151.776V156.511H142.201V165.836ZM147.788 153.723V149.225H150.338V150.045L148.716 149.6C148.53 150.607 148.113 152.013 147.788 152.973L149.087 153.419C149.457 152.622 149.898 151.474 150.338 150.349V153.723H147.788ZM143.476 150.373C143.893 151.38 144.311 152.645 144.45 153.442L145.934 152.95C145.771 152.106 145.238 150.724 144.774 149.693L143.476 150.068V149.225H146.049V153.723H143.476V150.373ZM150.408 147.257C150.964 146.507 151.544 145.663 152.147 144.82L149.527 144C149.133 144.984 148.484 146.273 147.858 147.257H144.983L146.189 146.812C145.887 146.062 145.284 144.937 144.705 144.094L142.41 144.82C142.85 145.546 143.36 146.507 143.638 147.257H141.366V155.715H152.587V147.257H150.408Z" fill="#383837"/>
<path d="M159.566 149.436H155.972V151.685H165.709V149.436H162.139V148.241H166.219V145.968H162.139V144.234H159.566V145.968H155.416V148.241H159.566V149.436ZM156.505 158.854C156.204 160.541 155.624 162.298 154.743 163.423C155.323 163.657 156.343 164.149 156.807 164.477C157.688 163.188 158.406 161.244 158.777 159.252L156.505 158.854ZM166.498 158.409V156.113H155.114V158.409H159.589V163.306C159.589 163.54 159.519 163.61 159.287 163.61C159.032 163.61 158.267 163.61 157.572 163.587C157.873 164.266 158.198 165.25 158.291 166C159.566 166 160.493 165.953 161.235 165.555C162 165.18 162.162 164.524 162.162 163.376V158.409H166.498ZM162.788 159.627C163.321 160.682 163.878 162.158 164.087 163.024L166.243 162.111C166.034 161.22 165.408 159.838 164.828 158.807L162.788 159.627ZM172.386 150.841H173.87C173.731 152.224 173.546 153.629 173.36 154.613L175.516 155.269C175.957 153.559 176.397 150.958 176.675 148.709L174.844 148.217L174.427 148.311H169.906C170.184 147.069 170.393 145.757 170.555 144.445L167.796 144.07C167.425 147.327 166.753 150.537 165.57 152.786H156.111V155.035H165.57V154.028C166.196 154.449 166.985 155.059 167.332 155.433C168.121 154.192 168.77 152.622 169.28 150.841H169.72V153.301C169.72 155.668 168.886 160.799 164.713 163.657C165.153 164.196 165.941 165.367 166.219 165.977C169.303 163.891 170.764 160.072 171.065 158.011C171.366 160.026 172.641 164.009 175.331 165.977C175.725 165.274 176.513 164.149 177 163.54C173.267 160.728 172.386 155.597 172.386 153.301V150.841Z" fill="#383837"/>
</svg>
