<svg width="403" height="191" viewBox="0 0 403 191" fill="none" xmlns="http://www.w3.org/2000/svg">
<path d="M77 123C42.5 123.002 18 123.002 18 123.002C18 123.002 24.5 122 28.5 116.502C32.5 111.004 49 56.5 52.5 51.002C56 45.5039 60.5 45.502 60.5 45.502H118.5C118.5 45.502 112.275 46.5115 109 52.502C103.552 62.4691 91.5 104.502 87.5 112.502C83.5 120.502 82.5 121.998 77 123Z" fill="#CAAD78"/>
<path fill-rule="evenodd" clip-rule="evenodd" d="M71.558 41H63C63 41 55.5 41 51 47.5C48.713 50.8034 43.1975 65.9883 37.8007 80.8465C36.8001 83.6012 35.8036 86.3446 34.8326 88.9991C13.8605 89 0 89 0 89C0 89 5.43284 88.1597 8.77612 83.5484C10.5585 81.0901 15.3101 66.9505 19.8018 53.5844C23.7356 41.8785 27.47 30.7659 28.8358 28.6129C31.7612 24.0016 35.5224 24 35.5224 24H84C84 24 78.7967 24.8467 76.0597 29.871C74.8652 32.0637 73.2909 36.1069 71.558 41Z" fill="#E0D2B5"/>
<path d="M137.505 88.205V95.3509H132.407V74.2893H140.845C142.462 74.2893 143.89 74.5883 145.13 75.1862C146.379 75.7744 147.342 76.6182 148.02 77.7176C148.707 78.8073 149.051 80.0465 149.051 81.4352C149.051 83.4893 148.31 85.1335 146.829 86.3679C145.357 87.5927 143.334 88.205 140.758 88.205H137.505ZM137.505 84.2849H140.845C141.833 84.2849 142.583 84.039 143.096 83.5472C143.619 83.0553 143.881 82.361 143.881 81.4642C143.881 80.4805 143.614 79.6945 143.082 79.1063C142.549 78.518 141.823 78.2191 140.903 78.2094H137.505V84.2849Z" fill="#383837"/>
<path d="M159.639 87.9157H156.88V95.3509H151.782V74.2893H160.104C162.612 74.2893 164.573 74.8438 165.986 75.9528C167.4 77.0618 168.107 78.6289 168.107 80.6541C168.107 82.1199 167.807 83.335 167.206 84.2994C166.616 85.2637 165.686 86.0449 164.418 86.6428L168.833 95.134V95.3509H163.372L159.639 87.9157ZM156.88 83.9956H160.104C161.072 83.9956 161.798 83.7449 162.283 83.2434C162.776 82.7323 163.023 82.0235 163.023 81.117C163.023 80.2105 162.776 79.5017 162.283 78.9906C161.789 78.4698 161.063 78.2094 160.104 78.2094H156.88V83.9956Z" fill="#383837"/>
<path d="M184.301 86.4258H176.284V91.4453H185.753V95.3509H171.186V74.2893H185.782V78.2094H176.284V82.6503H184.301V86.4258Z" fill="#383837"/>
<path d="M198.738 89.7528C198.738 89.0103 198.472 88.4317 197.939 88.017C197.416 87.6023 196.491 87.1732 195.165 86.7296C193.838 86.286 192.754 85.8568 191.912 85.4421C189.171 84.1017 187.801 82.2597 187.801 79.9164C187.801 78.7495 188.14 77.7224 188.818 76.8352C189.505 75.9384 190.474 75.244 191.723 74.7522C192.972 74.2507 194.376 74 195.935 74C197.455 74 198.815 74.27 200.016 74.8101C201.226 75.3501 202.166 76.1216 202.834 77.1245C203.502 78.1178 203.836 79.2558 203.836 80.5384H198.752C198.752 79.6801 198.486 79.0147 197.954 78.5421C197.431 78.0696 196.719 77.8333 195.819 77.8333C194.908 77.8333 194.187 78.0358 193.654 78.4409C193.132 78.8363 192.87 79.3426 192.87 79.9597C192.87 80.4998 193.161 80.9916 193.742 81.4352C194.323 81.8692 195.344 82.3224 196.806 82.795C198.268 83.2579 199.469 83.7593 200.408 84.2994C202.693 85.6109 203.836 87.4191 203.836 89.7239C203.836 91.5658 203.139 93.0124 201.744 94.0635C200.35 95.1147 198.438 95.6403 196.007 95.6403C194.293 95.6403 192.739 95.3365 191.345 94.7289C189.961 94.1117 188.915 93.2727 188.208 92.2119C187.511 91.1415 187.162 89.9119 187.162 88.5233H192.275C192.275 89.6516 192.565 90.4857 193.146 91.0258C193.737 91.5562 194.69 91.8214 196.007 91.8214C196.85 91.8214 197.513 91.643 197.997 91.2862C198.491 90.9197 198.738 90.4086 198.738 89.7528Z" fill="#383837"/>
<path d="M211.882 95.3509H206.799V74.2893H211.882V95.3509Z" fill="#383837"/>
<path d="M215.426 95.3509V74.2893H222.238C224.106 74.2893 225.786 74.7136 227.278 75.5623C228.769 76.4013 229.931 77.5922 230.763 79.1352C231.606 80.6686 232.032 82.3899 232.041 84.2994V85.2686C232.041 87.1973 231.63 88.9283 230.807 90.4616C229.994 91.9853 228.841 93.1811 227.35 94.0491C225.869 94.9073 224.213 95.3413 222.383 95.3509H215.426ZM220.524 78.2094V91.4453H222.296C223.758 91.4453 224.881 90.9293 225.665 89.8975C226.45 88.856 226.842 87.313 226.842 85.2686V84.3572C226.842 82.3224 226.45 80.7891 225.665 79.7572C224.881 78.7254 223.739 78.2094 222.238 78.2094H220.524Z" fill="#383837"/>
<path d="M247.771 86.4258H239.754V91.4453H249.223V95.3509H234.656V74.2893H249.252V78.2094H239.754V82.6503H247.771V86.4258Z" fill="#383837"/>
<path d="M268.961 95.3509H263.893L256.398 82.2453V95.3509H251.3V74.2893H256.398L263.878 87.395V74.2893H268.961V95.3509Z" fill="#383837"/>
<path d="M288.351 78.2094H282.004V95.3509H276.906V78.2094H270.675V74.2893H288.351V78.2094Z" fill="#383837"/>
<path d="M295.947 95.3509H290.864V74.2893H295.947V95.3509Z" fill="#383837"/>
<path d="M311.764 91.4164H304.778L303.558 95.3509H298.111L305.867 74.2893H310.66L318.474 95.3509H312.998L311.764 91.4164ZM305.998 87.4962H310.544L308.263 80.1912L305.998 87.4962Z" fill="#383837"/>
<path d="M325.126 91.4453H334V95.3509H320.028V74.2893H325.126V91.4453Z" fill="#383837"/>
<path d="M149.719 127.927C148.935 128.795 147.788 129.494 146.277 130.025C144.767 130.555 143.111 130.82 141.31 130.82C138.541 130.82 136.328 129.976 134.672 128.289C133.017 126.601 132.131 124.253 132.015 121.244L132 119.421C132 117.348 132.368 115.54 133.104 113.997C133.84 112.444 134.89 111.253 136.256 110.424C137.63 109.585 139.218 109.165 141.019 109.165C143.653 109.165 145.696 109.768 147.149 110.974C148.611 112.169 149.463 113.958 149.705 116.34H144.796C144.621 115.164 144.244 114.325 143.663 113.823C143.082 113.322 142.259 113.071 141.194 113.071C139.916 113.071 138.928 113.611 138.231 114.691C137.534 115.771 137.18 117.314 137.171 119.32V120.593C137.171 122.695 137.529 124.277 138.245 125.338C138.972 126.389 140.109 126.914 141.658 126.914C142.985 126.914 143.973 126.62 144.621 126.032V122.763H141.078V119.277H149.719V127.927Z" fill="#383837"/>
<path d="M160.54 123.096H157.78V130.531H152.682V109.469H161.004C163.512 109.469 165.473 110.024 166.887 111.133C168.3 112.242 169.007 113.809 169.007 115.834C169.007 117.3 168.707 118.515 168.107 119.479C167.516 120.444 166.587 121.225 165.318 121.823L169.733 130.314V130.531H164.272L160.54 123.096ZM157.78 119.175H161.004C161.973 119.175 162.699 118.925 163.183 118.423C163.677 117.912 163.924 117.203 163.924 116.297C163.924 115.39 163.677 114.682 163.183 114.17C162.689 113.65 161.963 113.389 161.004 113.389H157.78V119.175Z" fill="#383837"/>
<path d="M184.098 126.596H177.112L175.892 130.531H170.445L178.201 109.469H182.994L190.808 130.531H185.332L184.098 126.596ZM178.332 122.676H182.878L180.597 115.371L178.332 122.676Z" fill="#383837"/>
<path d="M210.023 130.531H204.954L197.46 117.425V130.531H192.362V109.469H197.46L204.94 122.575V109.469H210.023V130.531Z" fill="#383837"/>
<path d="M229.413 113.389H223.066V130.531H217.968V113.389H211.737V109.469H229.413V113.389Z" fill="#383837"/>
<path d="M242.252 124.933C242.252 124.19 241.986 123.612 241.453 123.197C240.93 122.782 240.005 122.353 238.679 121.909C237.352 121.466 236.268 121.037 235.426 120.622C232.685 119.282 231.315 117.44 231.315 115.096C231.315 113.929 231.654 112.902 232.332 112.015C233.019 111.118 233.988 110.424 235.237 109.932C236.486 109.431 237.89 109.18 239.449 109.18C240.969 109.18 242.329 109.45 243.53 109.99C244.74 110.53 245.679 111.301 246.348 112.304C247.016 113.298 247.35 114.436 247.35 115.718H242.266C242.266 114.86 242 114.195 241.467 113.722C240.945 113.249 240.233 113.013 239.332 113.013C238.422 113.013 237.701 113.216 237.168 113.621C236.646 114.016 236.384 114.522 236.384 115.14C236.384 115.68 236.675 116.171 237.256 116.615C237.836 117.049 238.858 117.502 240.32 117.975C241.782 118.438 242.983 118.939 243.922 119.479C246.207 120.791 247.35 122.599 247.35 124.904C247.35 126.746 246.653 128.192 245.258 129.243C243.864 130.295 241.952 130.82 239.521 130.82C237.807 130.82 236.253 130.516 234.859 129.909C233.474 129.292 232.429 128.453 231.722 127.392C231.025 126.321 230.676 125.092 230.676 123.703H235.789C235.789 124.831 236.079 125.666 236.66 126.206C237.251 126.736 238.204 127.001 239.521 127.001C240.364 127.001 241.027 126.823 241.511 126.466C242.005 126.1 242.252 125.588 242.252 124.933Z" fill="#383837"/>
<path d="M145.725 157.321H137.505V165.711H132.407V144.649H146.553V148.569H137.505V153.415H145.725V157.321Z" fill="#383837"/>
<path d="M165.26 144.649V158.435C165.26 159.997 164.926 161.352 164.258 162.499C163.59 163.637 162.631 164.505 161.382 165.103C160.133 165.701 158.656 166 156.952 166C154.377 166 152.348 165.335 150.867 164.004C149.385 162.673 148.63 160.85 148.601 158.536V144.649H153.728V158.637C153.786 160.942 154.861 162.094 156.952 162.094C158.008 162.094 158.806 161.805 159.349 161.226C159.891 160.648 160.162 159.708 160.162 158.406V144.649H165.26Z" fill="#383837"/>
<path d="M186.116 165.711H181.048L173.553 152.605V165.711H168.455V144.649H173.553L181.033 157.755V144.649H186.116V165.711Z" fill="#383837"/>
<path d="M189.341 165.711V144.649H196.153C198.021 144.649 199.701 145.073 201.192 145.922C202.684 146.761 203.845 147.952 204.678 149.495C205.521 151.028 205.947 152.75 205.956 154.659V155.628C205.956 157.557 205.545 159.288 204.722 160.821C203.908 162.345 202.756 163.541 201.265 164.409C199.784 165.267 198.128 165.701 196.298 165.711H189.341ZM194.439 148.569V161.805H196.211C197.673 161.805 198.796 161.289 199.58 160.257C200.365 159.216 200.757 157.673 200.757 155.628V154.717C200.757 152.682 200.365 151.149 199.58 150.117C198.796 149.085 197.653 148.569 196.153 148.569H194.439Z" fill="#383837"/>
<path d="M145.367 56.9358L147.778 45.2139H150.479L146.863 60.7861H144.259L141.277 49.4171L138.232 60.7861H135.616L132 45.2139H134.701L137.134 56.9144L140.126 45.2139H142.407L145.367 56.9358Z" fill="#595959"/>
<path d="M155.344 60.7861H152.632V45.2139H155.344V60.7861Z" fill="#595959"/>
<path d="M169.69 47.3957H164.804V60.7861H162.103V47.3957H157.26V45.2139H169.69V47.3957Z" fill="#595959"/>
<path d="M184.198 60.7861H181.486V53.8663H174.48V60.7861H171.757V45.2139H174.48V51.6952H181.486V45.2139H184.198V60.7861Z" fill="#595959"/>
<path d="M203.592 47.3957H198.706V60.7861H196.005V47.3957H191.162V45.2139H203.592V47.3957Z" fill="#595959"/>
<path d="M218.1 60.7861H215.388V53.8663H208.382V60.7861H205.659V45.2139H208.382V51.6952H215.388V45.2139H218.1V60.7861Z" fill="#595959"/>
<path d="M230.488 53.8342H224.052V58.6257H231.575V60.7861H221.329V45.2139H231.5V47.3957H224.052V51.6952H230.488V53.8342Z" fill="#595959"/>
<path d="M247.471 56.7754C247.471 56.0909 247.227 55.5633 246.739 55.1925C246.259 54.8217 245.387 54.4474 244.124 54.0695C242.861 53.6916 241.857 53.2709 241.111 52.8075C239.683 51.9162 238.969 50.754 238.969 49.3209C238.969 48.066 239.482 47.0321 240.508 46.2193C241.541 45.4064 242.879 45 244.522 45C245.613 45 246.585 45.1996 247.439 45.5989C248.293 45.9982 248.964 46.5686 249.452 47.3102C249.939 48.0446 250.183 48.861 250.183 49.7594H247.471C247.471 48.9465 247.213 48.3119 246.696 47.8556C246.187 47.3922 245.455 47.1604 244.501 47.1604C243.611 47.1604 242.919 47.3494 242.424 47.7273C241.936 48.1052 241.692 48.6328 241.692 49.3102C241.692 49.8806 241.957 50.3583 242.488 50.7433C243.019 51.1212 243.895 51.492 245.114 51.8556C246.334 52.2121 247.313 52.6221 248.052 53.0856C248.791 53.5419 249.333 54.0695 249.678 54.6684C250.022 55.2602 250.194 55.9554 250.194 56.754C250.194 58.0517 249.692 59.0856 248.687 59.8556C247.69 60.6185 246.334 61 244.619 61C243.486 61 242.442 60.7932 241.487 60.3797C240.54 59.959 239.801 59.3815 239.27 58.6471C238.746 57.9127 238.485 57.057 238.485 56.0802H241.207C241.207 56.9643 241.502 57.6488 242.09 58.1337C242.678 58.6185 243.521 58.861 244.619 58.861C245.566 58.861 246.277 58.672 246.75 58.2941C247.231 57.9091 247.471 57.4029 247.471 56.7754Z" fill="#595959"/>
<path d="M264.046 45.2139V55.6203C264.046 57.2745 263.511 58.5865 262.442 59.5562C261.38 60.5187 259.963 61 258.191 61C256.397 61 254.973 60.5258 253.918 59.5775C252.863 58.6221 252.336 57.2995 252.336 55.6096V45.2139H255.048V55.631C255.048 56.672 255.314 57.467 255.845 58.016C256.375 58.5651 257.158 58.8396 258.191 58.8396C260.286 58.8396 261.333 57.7415 261.333 55.5455V45.2139H264.046Z" fill="#595959"/>
<path d="M269.685 55V60.7861H266.962V45.2139H272.957C274.708 45.2139 276.096 45.6667 277.122 46.5722C278.155 47.4777 278.672 48.6756 278.672 50.1658C278.672 51.6916 278.166 52.8788 277.154 53.7273C276.15 54.5758 274.74 55 272.925 55H269.685ZM269.685 52.8289H272.957C273.926 52.8289 274.665 52.6043 275.174 52.1551C275.683 51.6988 275.938 51.0428 275.938 50.1872C275.938 49.3458 275.68 48.6756 275.163 48.1765C274.647 47.6702 273.936 47.41 273.032 47.3957H269.685V52.8289Z" fill="#595959"/>
<path d="M283.784 55V60.7861H281.061V45.2139H287.056C288.807 45.2139 290.195 45.6667 291.221 46.5722C292.254 47.4777 292.771 48.6756 292.771 50.1658C292.771 51.6916 292.265 52.8788 291.253 53.7273C290.249 54.5758 288.839 55 287.024 55H283.784ZM283.784 52.8289H287.056C288.025 52.8289 288.764 52.6043 289.273 52.1551C289.782 51.6988 290.037 51.0428 290.037 50.1872C290.037 49.3458 289.779 48.6756 289.262 48.1765C288.746 47.6702 288.035 47.41 287.131 47.3957H283.784V52.8289Z" fill="#595959"/>
<path d="M307.666 53.4064C307.666 54.9323 307.401 56.2727 306.87 57.4278C306.339 58.5758 305.578 59.4599 304.588 60.0802C303.605 60.6934 302.471 61 301.187 61C299.917 61 298.783 60.6934 297.786 60.0802C296.796 59.4599 296.028 58.5793 295.483 57.4385C294.945 56.2977 294.672 54.9822 294.665 53.492V52.615C294.665 51.0963 294.934 49.7558 295.472 48.5936C296.017 47.4314 296.782 46.5437 297.765 45.9305C298.755 45.3102 299.888 45 301.166 45C302.443 45 303.573 45.3066 304.556 45.9198C305.546 46.5258 306.31 47.4029 306.848 48.5508C307.386 49.6916 307.659 51.0214 307.666 52.5401V53.4064ZM304.943 52.5936C304.943 50.8681 304.613 49.5455 303.953 48.6257C303.3 47.7059 302.371 47.246 301.166 47.246C299.989 47.246 299.067 47.7059 298.4 48.6257C297.739 49.5383 297.402 50.8324 297.388 52.508V53.4064C297.388 55.1176 297.722 56.4403 298.389 57.3743C299.063 58.3084 299.996 58.7754 301.187 58.7754C302.392 58.7754 303.318 58.3191 303.964 57.4064C304.617 56.4938 304.943 55.1604 304.943 53.4064V52.5936Z" fill="#595959"/>
<path d="M316.136 54.7861H313.101V60.7861H310.378V45.2139H315.889C317.697 45.2139 319.092 45.6168 320.075 46.4225C321.058 47.2282 321.55 48.3939 321.55 49.9198C321.55 50.9608 321.295 51.8342 320.786 52.5401C320.283 53.2389 319.58 53.7772 318.676 54.1551L322.196 60.6471V60.7861H319.279L316.136 54.7861ZM313.101 52.615H315.899C316.818 52.615 317.535 52.3868 318.052 51.9305C318.569 51.467 318.827 50.836 318.827 50.0374C318.827 49.2032 318.587 48.5579 318.106 48.1016C317.632 47.6453 316.922 47.41 315.975 47.3957H313.101V52.615Z" fill="#595959"/>
<path d="M334.917 47.3957H330.031V60.7861H327.329V47.3957H322.486V45.2139H334.917V47.3957Z" fill="#595959"/>
<path d="M354.333 53.4064C354.333 54.9323 354.067 56.2727 353.536 57.4278C353.005 58.5758 352.245 59.4599 351.254 60.0802C350.271 60.6934 349.138 61 347.853 61C346.583 61 345.45 60.6934 344.452 60.0802C343.462 59.4599 342.695 58.5793 342.149 57.4385C341.611 56.2977 341.339 54.9822 341.331 53.492V52.615C341.331 51.0963 341.6 49.7558 342.139 48.5936C342.684 47.4314 343.448 46.5437 344.431 45.9305C345.421 45.3102 346.555 45 347.832 45C349.109 45 350.239 45.3066 351.222 45.9198C352.212 46.5258 352.976 47.4029 353.515 48.5508C354.053 49.6916 354.325 51.0214 354.333 52.5401V53.4064ZM351.61 52.5936C351.61 50.8681 351.28 49.5455 350.619 48.6257C349.966 47.7059 349.037 47.246 347.832 47.246C346.655 47.246 345.733 47.7059 345.066 48.6257C344.406 49.5383 344.069 50.8324 344.054 52.508V53.4064C344.054 55.1176 344.388 56.4403 345.055 57.3743C345.73 58.3084 346.662 58.7754 347.853 58.7754C349.059 58.7754 349.984 58.3191 350.63 57.4064C351.283 56.4938 351.61 55.1604 351.61 53.4064V52.5936Z" fill="#595959"/>
<path d="M366.074 54.1872H359.768V60.7861H357.045V45.2139H367V47.3957H359.768V52.0267H366.074V54.1872Z" fill="#595959"/>
</svg>
