<svg width="128" height="128" viewBox="0 0 128 128" fill="none" xmlns="http://www.w3.org/2000/svg">
<circle cx="64" cy="64" r="64" fill="#436EB3"/>
<path d="M74.2291 116.571H53.7706V41.2797H74.2291V116.571ZM52.5713 21.7959C52.5713 18.7805 53.5825 16.2987 55.6048 14.3503C57.6742 12.4019 60.4725 11.4277 63.9999 11.4277C67.4802 11.4277 70.255 12.4019 72.3244 14.3503C74.3937 16.2987 75.4284 18.7805 75.4284 21.7959C75.4284 24.8576 74.3702 27.3627 72.2538 29.3111C70.1845 31.2594 67.4331 32.2336 63.9999 32.2336C60.5666 32.2336 57.7917 31.2594 55.6753 29.3111C53.606 27.3627 52.5713 24.8576 52.5713 21.7959Z" fill="white"/>
</svg>
