<svg width="403" height="191" viewBox="0 0 403 191" fill="none" xmlns="http://www.w3.org/2000/svg">
<path d="M147.679 149.89H137.593V165.733H132V146.267H147.679V149.89Z" fill="#383837"/>
<path d="M155.821 159.128V165.733H150.228V146.267H159.485C161.259 146.267 162.826 146.544 164.186 147.096C165.556 147.64 166.613 148.42 167.357 149.436C168.111 150.443 168.488 151.588 168.488 152.872C168.488 154.77 167.675 156.29 166.05 157.43C164.435 158.562 162.215 159.128 159.39 159.128H155.821ZM155.821 155.505H159.485C160.569 155.505 161.392 155.278 161.955 154.824C162.529 154.369 162.816 153.727 162.816 152.898C162.816 151.989 162.523 151.263 161.939 150.719C161.355 150.176 160.558 149.899 159.549 149.89H155.821V155.505Z" fill="#383837"/>
<path d="M181.824 162.096H174.16L172.822 165.733H166.847L175.355 146.267H180.613L189.186 165.733H183.179L181.824 162.096ZM175.499 158.473H180.486L177.984 151.722L175.499 158.473Z" fill="#383837"/>
<path d="M210.282 165.733H204.721V157.604H196.483V165.733H190.89V146.267H196.483V153.995H204.721V146.267H210.282V165.733Z" fill="#383837"/>
<path d="M231.569 149.89H224.606V165.733H219.013V149.89H212.178V146.267H231.569V149.89Z" fill="#383837"/>
<path d="M253.143 156.401C253.143 158.299 252.723 159.98 251.884 161.441C251.045 162.903 249.85 164.03 248.299 164.824C246.759 165.608 245.001 166 243.025 166C241.049 166 239.297 165.621 237.767 164.864C236.237 164.097 235.042 163.005 234.182 161.588C233.332 160.171 232.886 158.545 232.844 156.709V155.612C232.844 153.705 233.258 152.025 234.086 150.572C234.926 149.111 236.121 147.983 237.671 147.19C239.233 146.397 241.007 146 242.993 146C244.958 146 246.711 146.392 248.251 147.176C249.792 147.961 250.987 149.079 251.836 150.532C252.697 151.976 253.132 153.634 253.143 155.505V156.401ZM247.455 155.586C247.455 153.652 247.067 152.185 246.292 151.187C245.527 150.18 244.427 149.676 242.993 149.676C240.189 149.676 238.707 151.441 238.548 154.971L238.532 156.401C238.532 158.308 238.909 159.775 239.663 160.799C240.417 161.824 241.538 162.337 243.025 162.337C244.438 162.337 245.527 161.833 246.292 160.826C247.056 159.819 247.444 158.371 247.455 156.481V155.586Z" fill="#383837"/>
<path d="M256.027 165.733V146.267H264.36C267.345 146.267 269.613 146.726 271.164 147.644C272.725 148.562 273.506 149.895 273.506 151.642C273.506 152.649 273.23 153.509 272.678 154.222C272.125 154.935 271.313 155.461 270.24 155.799C271.451 156.067 272.38 156.566 273.028 157.297C273.676 158.028 274 158.919 274 159.971C274 161.878 273.278 163.313 271.833 164.275C270.399 165.229 268.269 165.715 265.444 165.733H256.027ZM261.62 157.457V162.123H265.284C266.293 162.123 267.069 161.931 267.611 161.548C268.152 161.156 268.423 160.608 268.423 159.904C268.423 158.282 267.462 157.466 265.539 157.457H261.62ZM261.62 154.382H264.535C265.757 154.373 266.628 154.186 267.149 153.821C267.669 153.455 267.929 152.916 267.929 152.203C267.929 151.383 267.648 150.795 267.085 150.439C266.522 150.073 265.614 149.89 264.36 149.89H261.62V154.382Z" fill="#383837"/>
<path d="M147.232 76.4546C150.227 76.4546 152.61 77.2106 154.382 78.7225C156.164 80.2255 157.055 82.1955 157.055 84.6323C157.055 85.8241 156.818 86.9091 156.343 87.8874C155.879 88.8568 155.226 89.6839 154.382 90.3687C152.6 91.8362 150.217 92.5699 147.232 92.5699V95.0245H141.886V92.5699C138.86 92.5699 136.455 91.8362 134.673 90.3687C132.891 88.9013 132 86.998 132 84.659C132 83.4228 132.237 82.3022 132.712 81.2972C133.186 80.2922 133.851 79.434 134.705 78.7225C136.497 77.2106 138.891 76.4546 141.886 76.4546V74H147.232V76.4546ZM141.68 80.2166C140.299 80.2166 139.208 80.608 138.406 81.3906C137.615 82.1732 137.22 83.2627 137.22 84.659C137.22 85.9397 137.621 86.9536 138.422 87.7006C139.223 88.4388 140.378 88.8079 141.886 88.8079V80.2166H141.68ZM147.232 80.2166V88.8079H147.47C148.788 88.8079 149.842 88.4433 150.633 87.714C151.435 86.9758 151.835 85.9486 151.835 84.6323C151.835 83.2627 151.445 82.1866 150.665 81.4039C149.895 80.6124 148.751 80.2166 147.232 80.2166Z" fill="#383837"/>
<path d="M179.327 84.9125C179.327 86.8068 178.91 88.4833 178.077 89.9418C177.244 91.4004 176.058 92.5254 174.518 93.317C172.989 94.0996 171.244 94.4909 169.282 94.4909C167.321 94.4909 165.581 94.1129 164.062 93.357C162.544 92.5921 161.358 91.5027 160.503 90.0886C159.66 88.6745 159.217 87.0514 159.175 85.2193V84.1254C159.175 82.2222 159.586 80.5457 160.409 79.0961C161.242 77.6375 162.428 76.5125 163.968 75.7209C165.518 74.9294 167.279 74.5336 169.251 74.5336C171.202 74.5336 172.941 74.9249 174.471 75.7076C176 76.4902 177.186 77.6064 178.029 79.056C178.884 80.4968 179.316 82.151 179.327 84.0187V84.9125ZM173.68 84.0987C173.68 82.1688 173.295 80.7058 172.525 79.7097C171.766 78.7047 170.674 78.2022 169.251 78.2022C166.467 78.2022 164.996 79.9632 164.838 83.4851L164.822 84.9125C164.822 86.8157 165.196 88.2787 165.945 89.3015C166.693 90.3243 167.806 90.8356 169.282 90.8356C170.685 90.8356 171.766 90.3332 172.525 89.3282C173.284 88.3232 173.669 86.878 173.68 84.9925V84.0987Z" fill="#383837"/>
<path d="M201.44 94.2241H195.919V86.1131H187.742V94.2241H182.19V74.8004H187.742V82.5112H195.919V74.8004H201.44V94.2241Z" fill="#383837"/>
<path d="M226.859 99H221.876V94.2241H209.333V98.9867H204.192L203.797 90.6222H205.426C206.28 90.1419 206.965 89.3193 207.482 88.1542C208.009 86.9803 208.384 85.2994 208.605 83.1115L209.317 74.8004H224.992V90.6222H227.444L226.859 99ZM211.705 90.6222H219.456V78.4157H214.553L214.125 83.2716C213.809 86.42 213.002 88.8702 211.705 90.6222Z" fill="#383837"/>
<path d="M242.692 90.5955H235.084L233.755 94.2241H227.824L236.27 74.8004H241.49L250 94.2241H244.037L242.692 90.5955ZM236.413 86.9803H241.364L238.88 80.2433L236.413 86.9803Z" fill="#383837"/>
<path d="M77 123C42.5 123.002 18 123.002 18 123.002C18 123.002 24.5 122 28.5 116.502C32.5 111.004 49 56.5 52.5 51.002C56 45.5039 60.5 45.502 60.5 45.502H118.5C118.5 45.502 112.275 46.5115 109 52.502C103.552 62.4691 91.5 104.502 87.5 112.502C83.5 120.502 82.5 121.998 77 123Z" fill="#CAAD78"/>
<path fill-rule="evenodd" clip-rule="evenodd" d="M71.558 41H63C63 41 55.5 41 51 47.5C48.713 50.8034 43.1975 65.9883 37.8007 80.8465C36.8001 83.6012 35.8036 86.3446 34.8326 88.9991C13.8605 89 0 89 0 89C0 89 5.43284 88.1597 8.77612 83.5484C10.5585 81.0901 15.3101 66.9505 19.8018 53.5844C23.7356 41.8785 27.47 30.7659 28.8358 28.6129C31.7612 24.0016 35.5224 24 35.5224 24H84C84 24 78.7967 24.8467 76.0597 29.871C74.8652 32.0637 73.2909 36.1069 71.558 41Z" fill="#E0D2B5"/>
<mask id="path-5-outside-1_4564:327" maskUnits="userSpaceOnUse" x="131" y="44" width="201" height="20" fill="black">
<rect fill="white" x="131" y="44" width="201" height="20"/>
<path d="M144.781 59.4864H142.544V46.747H134.225V59.4864H132V45.1963H144.781V59.4864Z"/>
<path d="M151.061 53.892V59.4864H148.836V45.1963H155.059C156.905 45.1963 158.349 45.5954 159.392 46.3937C160.443 47.1919 160.968 48.2486 160.968 49.5638C160.968 50.9509 160.455 52.0207 159.427 52.7732C158.407 53.5191 156.944 53.892 155.036 53.892H151.061ZM151.061 52.3511H155.059C156.248 52.3511 157.16 52.1156 157.793 51.6445C158.427 51.1668 158.743 50.4798 158.743 49.5834C158.743 48.7328 158.427 48.0523 157.793 47.542C157.16 47.0316 156.291 46.7666 155.186 46.747H151.061V52.3511Z"/>
<path d="M174.444 45.1963H176.669V59.4864H174.444V48.4744L166.136 59.4864H163.9V45.1963H166.136V56.2083L174.444 45.1963Z"/>
<path d="M199.496 59.4864H197.26V46.747H188.94V59.4864H186.715V45.1963H199.496V59.4864Z"/>
<path d="M216.529 52.8026C216.529 54.2028 216.251 55.4264 215.695 56.4733C215.139 57.5136 214.351 58.3086 213.331 58.8582C212.311 59.4079 211.122 59.6827 209.762 59.6827C208.434 59.6827 207.256 59.4079 206.228 58.8582C205.201 58.3021 204.401 57.5136 203.83 56.4929C203.266 55.4656 202.976 54.2781 202.961 52.9302V51.8997C202.961 50.5256 203.242 49.3119 203.806 48.2585C204.37 47.205 205.166 46.4002 206.193 45.8441C207.229 45.2814 208.41 45 209.739 45C211.091 45 212.281 45.2781 213.308 45.8342C214.343 46.3839 215.139 47.1854 215.695 48.2388C216.251 49.2857 216.529 50.506 216.529 51.8997V52.8026ZM214.316 51.88C214.316 50.1854 213.914 48.8866 213.111 47.9836C212.308 47.0742 211.184 46.6194 209.739 46.6194C208.333 46.6194 207.225 47.0742 206.414 47.9836C205.61 48.8866 205.197 50.1429 205.174 51.7525V52.8026C205.174 54.4449 205.579 55.7372 206.39 56.6794C207.209 57.615 208.333 58.0829 209.762 58.0829C211.199 58.0829 212.311 57.6412 213.099 56.7579C213.887 55.868 214.293 54.5954 214.316 52.94V51.88Z"/>
<path d="M234.652 62.9902H232.439V59.4864H220.33V63H218.105L218.094 57.9455H219.472C220.199 57.2519 220.774 56.3228 221.199 55.1581C221.631 53.9869 221.902 52.7045 222.01 51.3108L222.381 45.1963H232.473V57.9455H234.675L234.652 62.9902ZM222.01 57.9455H230.237V46.747H224.524L224.281 50.9477C224.181 52.59 223.922 53.9902 223.505 55.1483C223.095 56.3064 222.597 57.2388 222.01 57.9455Z"/>
<path d="M252.728 62.9902H250.515V59.4864H238.406V63H236.181L236.17 57.9455H237.549C238.275 57.2519 238.85 56.3228 239.275 55.1581C239.708 53.9869 239.978 52.7045 240.086 51.3108L240.457 45.1963H250.549V57.9455H252.751L252.728 62.9902ZM240.086 57.9455H248.313V46.747H242.601L242.357 50.9477C242.257 52.59 241.998 53.9902 241.581 55.1483C241.172 56.3064 240.673 57.2388 240.086 57.9455Z"/>
<path d="M264.929 52.8811H257.618V57.9455H266.111V59.4864H255.393V45.1963H265.995V46.747H257.618V51.3402H264.929V52.8811Z"/>
<path d="M271.105 53.892V59.4864H268.881V45.1963H275.103C276.949 45.1963 278.394 45.5954 279.437 46.3937C280.487 47.1919 281.012 48.2486 281.012 49.5638C281.012 50.9509 280.499 52.0207 279.471 52.7732C278.452 53.5191 276.988 53.892 275.08 53.892H271.105ZM271.105 52.3511H275.103C276.293 52.3511 277.204 52.1156 277.838 51.6445C278.471 51.1668 278.788 50.4798 278.788 49.5834C278.788 48.7328 278.471 48.0523 277.838 47.542C277.204 47.0316 276.335 46.7666 275.23 46.747H271.105V52.3511Z"/>
<path d="M295.334 52.9695H293.527V59.4864H291.302V52.9695H289.39L284.616 59.4864H281.835L287.513 51.9487L282.275 45.1963H284.906L289.39 51.3991H291.302V45.1963H293.527V51.3991H295.358L299.842 45.1963H302.461L297.223 51.9389L302.901 59.4864H300.131L295.334 52.9695Z"/>
<path d="M309.413 53.0676H307.362V59.4864H305.137V45.1963H307.362V51.4973H309.1L314.998 45.1963H317.767L311.325 52.1254L318.242 59.4864H315.519L309.413 53.0676Z"/>
<path d="M329.818 52.8811H322.507V57.9455H331V59.4864H320.282V45.1963H330.884V46.747H322.507V51.3402H329.818V52.8811Z"/>
</mask>
<path d="M144.781 59.4864H142.544V46.747H134.225V59.4864H132V45.1963H144.781V59.4864Z" fill="#595959"/>
<path d="M151.061 53.892V59.4864H148.836V45.1963H155.059C156.905 45.1963 158.349 45.5954 159.392 46.3937C160.443 47.1919 160.968 48.2486 160.968 49.5638C160.968 50.9509 160.455 52.0207 159.427 52.7732C158.407 53.5191 156.944 53.892 155.036 53.892H151.061ZM151.061 52.3511H155.059C156.248 52.3511 157.16 52.1156 157.793 51.6445C158.427 51.1668 158.743 50.4798 158.743 49.5834C158.743 48.7328 158.427 48.0523 157.793 47.542C157.16 47.0316 156.291 46.7666 155.186 46.747H151.061V52.3511Z" fill="#595959"/>
<path d="M174.444 45.1963H176.669V59.4864H174.444V48.4744L166.136 59.4864H163.9V45.1963H166.136V56.2083L174.444 45.1963Z" fill="#595959"/>
<path d="M199.496 59.4864H197.26V46.747H188.94V59.4864H186.715V45.1963H199.496V59.4864Z" fill="#595959"/>
<path d="M216.529 52.8026C216.529 54.2028 216.251 55.4264 215.695 56.4733C215.139 57.5136 214.351 58.3086 213.331 58.8582C212.311 59.4079 211.122 59.6827 209.762 59.6827C208.434 59.6827 207.256 59.4079 206.228 58.8582C205.201 58.3021 204.401 57.5136 203.83 56.4929C203.266 55.4656 202.976 54.2781 202.961 52.9302V51.8997C202.961 50.5256 203.242 49.3119 203.806 48.2585C204.37 47.205 205.166 46.4002 206.193 45.8441C207.229 45.2814 208.41 45 209.739 45C211.091 45 212.281 45.2781 213.308 45.8342C214.343 46.3839 215.139 47.1854 215.695 48.2388C216.251 49.2857 216.529 50.506 216.529 51.8997V52.8026ZM214.316 51.88C214.316 50.1854 213.914 48.8866 213.111 47.9836C212.308 47.0742 211.184 46.6194 209.739 46.6194C208.333 46.6194 207.225 47.0742 206.414 47.9836C205.61 48.8866 205.197 50.1429 205.174 51.7525V52.8026C205.174 54.4449 205.579 55.7372 206.39 56.6794C207.209 57.615 208.333 58.0829 209.762 58.0829C211.199 58.0829 212.311 57.6412 213.099 56.7579C213.887 55.868 214.293 54.5954 214.316 52.94V51.88Z" fill="#595959"/>
<path d="M234.652 62.9902H232.439V59.4864H220.33V63H218.105L218.094 57.9455H219.472C220.199 57.2519 220.774 56.3228 221.199 55.1581C221.631 53.9869 221.902 52.7045 222.01 51.3108L222.381 45.1963H232.473V57.9455H234.675L234.652 62.9902ZM222.01 57.9455H230.237V46.747H224.524L224.281 50.9477C224.181 52.59 223.922 53.9902 223.505 55.1483C223.095 56.3064 222.597 57.2388 222.01 57.9455Z" fill="#595959"/>
<path d="M252.728 62.9902H250.515V59.4864H238.406V63H236.181L236.17 57.9455H237.549C238.275 57.2519 238.85 56.3228 239.275 55.1581C239.708 53.9869 239.978 52.7045 240.086 51.3108L240.457 45.1963H250.549V57.9455H252.751L252.728 62.9902ZM240.086 57.9455H248.313V46.747H242.601L242.357 50.9477C242.257 52.59 241.998 53.9902 241.581 55.1483C241.172 56.3064 240.673 57.2388 240.086 57.9455Z" fill="#595959"/>
<path d="M264.929 52.8811H257.618V57.9455H266.111V59.4864H255.393V45.1963H265.995V46.747H257.618V51.3402H264.929V52.8811Z" fill="#595959"/>
<path d="M271.105 53.892V59.4864H268.881V45.1963H275.103C276.949 45.1963 278.394 45.5954 279.437 46.3937C280.487 47.1919 281.012 48.2486 281.012 49.5638C281.012 50.9509 280.499 52.0207 279.471 52.7732C278.452 53.5191 276.988 53.892 275.08 53.892H271.105ZM271.105 52.3511H275.103C276.293 52.3511 277.204 52.1156 277.838 51.6445C278.471 51.1668 278.788 50.4798 278.788 49.5834C278.788 48.7328 278.471 48.0523 277.838 47.542C277.204 47.0316 276.335 46.7666 275.23 46.747H271.105V52.3511Z" fill="#595959"/>
<path d="M295.334 52.9695H293.527V59.4864H291.302V52.9695H289.39L284.616 59.4864H281.835L287.513 51.9487L282.275 45.1963H284.906L289.39 51.3991H291.302V45.1963H293.527V51.3991H295.358L299.842 45.1963H302.461L297.223 51.9389L302.901 59.4864H300.131L295.334 52.9695Z" fill="#595959"/>
<path d="M309.413 53.0676H307.362V59.4864H305.137V45.1963H307.362V51.4973H309.1L314.998 45.1963H317.767L311.325 52.1254L318.242 59.4864H315.519L309.413 53.0676Z" fill="#595959"/>
<path d="M329.818 52.8811H322.507V57.9455H331V59.4864H320.282V45.1963H330.884V46.747H322.507V51.3402H329.818V52.8811Z" fill="#595959"/>
<path d="M144.781 59.4864H142.544V46.747H134.225V59.4864H132V45.1963H144.781V59.4864Z" stroke="#595959" stroke-width="0.5" mask="url(#path-5-outside-1_4564:327)"/>
<path d="M151.061 53.892V59.4864H148.836V45.1963H155.059C156.905 45.1963 158.349 45.5954 159.392 46.3937C160.443 47.1919 160.968 48.2486 160.968 49.5638C160.968 50.9509 160.455 52.0207 159.427 52.7732C158.407 53.5191 156.944 53.892 155.036 53.892H151.061ZM151.061 52.3511H155.059C156.248 52.3511 157.16 52.1156 157.793 51.6445C158.427 51.1668 158.743 50.4798 158.743 49.5834C158.743 48.7328 158.427 48.0523 157.793 47.542C157.16 47.0316 156.291 46.7666 155.186 46.747H151.061V52.3511Z" stroke="#595959" stroke-width="0.5" mask="url(#path-5-outside-1_4564:327)"/>
<path d="M174.444 45.1963H176.669V59.4864H174.444V48.4744L166.136 59.4864H163.9V45.1963H166.136V56.2083L174.444 45.1963Z" stroke="#595959" stroke-width="0.5" mask="url(#path-5-outside-1_4564:327)"/>
<path d="M199.496 59.4864H197.26V46.747H188.94V59.4864H186.715V45.1963H199.496V59.4864Z" stroke="#595959" stroke-width="0.5" mask="url(#path-5-outside-1_4564:327)"/>
<path d="M216.529 52.8026C216.529 54.2028 216.251 55.4264 215.695 56.4733C215.139 57.5136 214.351 58.3086 213.331 58.8582C212.311 59.4079 211.122 59.6827 209.762 59.6827C208.434 59.6827 207.256 59.4079 206.228 58.8582C205.201 58.3021 204.401 57.5136 203.83 56.4929C203.266 55.4656 202.976 54.2781 202.961 52.9302V51.8997C202.961 50.5256 203.242 49.3119 203.806 48.2585C204.37 47.205 205.166 46.4002 206.193 45.8441C207.229 45.2814 208.41 45 209.739 45C211.091 45 212.281 45.2781 213.308 45.8342C214.343 46.3839 215.139 47.1854 215.695 48.2388C216.251 49.2857 216.529 50.506 216.529 51.8997V52.8026ZM214.316 51.88C214.316 50.1854 213.914 48.8866 213.111 47.9836C212.308 47.0742 211.184 46.6194 209.739 46.6194C208.333 46.6194 207.225 47.0742 206.414 47.9836C205.61 48.8866 205.197 50.1429 205.174 51.7525V52.8026C205.174 54.4449 205.579 55.7372 206.39 56.6794C207.209 57.615 208.333 58.0829 209.762 58.0829C211.199 58.0829 212.311 57.6412 213.099 56.7579C213.887 55.868 214.293 54.5954 214.316 52.94V51.88Z" stroke="#595959" stroke-width="0.5" mask="url(#path-5-outside-1_4564:327)"/>
<path d="M234.652 62.9902H232.439V59.4864H220.33V63H218.105L218.094 57.9455H219.472C220.199 57.2519 220.774 56.3228 221.199 55.1581C221.631 53.9869 221.902 52.7045 222.01 51.3108L222.381 45.1963H232.473V57.9455H234.675L234.652 62.9902ZM222.01 57.9455H230.237V46.747H224.524L224.281 50.9477C224.181 52.59 223.922 53.9902 223.505 55.1483C223.095 56.3064 222.597 57.2388 222.01 57.9455Z" stroke="#595959" stroke-width="0.5" mask="url(#path-5-outside-1_4564:327)"/>
<path d="M252.728 62.9902H250.515V59.4864H238.406V63H236.181L236.17 57.9455H237.549C238.275 57.2519 238.85 56.3228 239.275 55.1581C239.708 53.9869 239.978 52.7045 240.086 51.3108L240.457 45.1963H250.549V57.9455H252.751L252.728 62.9902ZM240.086 57.9455H248.313V46.747H242.601L242.357 50.9477C242.257 52.59 241.998 53.9902 241.581 55.1483C241.172 56.3064 240.673 57.2388 240.086 57.9455Z" stroke="#595959" stroke-width="0.5" mask="url(#path-5-outside-1_4564:327)"/>
<path d="M264.929 52.8811H257.618V57.9455H266.111V59.4864H255.393V45.1963H265.995V46.747H257.618V51.3402H264.929V52.8811Z" stroke="#595959" stroke-width="0.5" mask="url(#path-5-outside-1_4564:327)"/>
<path d="M271.105 53.892V59.4864H268.881V45.1963H275.103C276.949 45.1963 278.394 45.5954 279.437 46.3937C280.487 47.1919 281.012 48.2486 281.012 49.5638C281.012 50.9509 280.499 52.0207 279.471 52.7732C278.452 53.5191 276.988 53.892 275.08 53.892H271.105ZM271.105 52.3511H275.103C276.293 52.3511 277.204 52.1156 277.838 51.6445C278.471 51.1668 278.788 50.4798 278.788 49.5834C278.788 48.7328 278.471 48.0523 277.838 47.542C277.204 47.0316 276.335 46.7666 275.23 46.747H271.105V52.3511Z" stroke="#595959" stroke-width="0.5" mask="url(#path-5-outside-1_4564:327)"/>
<path d="M295.334 52.9695H293.527V59.4864H291.302V52.9695H289.39L284.616 59.4864H281.835L287.513 51.9487L282.275 45.1963H284.906L289.39 51.3991H291.302V45.1963H293.527V51.3991H295.358L299.842 45.1963H302.461L297.223 51.9389L302.901 59.4864H300.131L295.334 52.9695Z" stroke="#595959" stroke-width="0.5" mask="url(#path-5-outside-1_4564:327)"/>
<path d="M309.413 53.0676H307.362V59.4864H305.137V45.1963H307.362V51.4973H309.1L314.998 45.1963H317.767L311.325 52.1254L318.242 59.4864H315.519L309.413 53.0676Z" stroke="#595959" stroke-width="0.5" mask="url(#path-5-outside-1_4564:327)"/>
<path d="M329.818 52.8811H322.507V57.9455H331V59.4864H320.282V45.1963H330.884V46.747H322.507V51.3402H329.818V52.8811Z" stroke="#595959" stroke-width="0.5" mask="url(#path-5-outside-1_4564:327)"/>
<path d="M151.122 130.123H145.643V113.978H137.479V130.123H132V110.286H151.122V130.123Z" fill="#383837"/>
<path d="M160.019 123.392V130.123H154.54V110.286H163.61C165.347 110.286 166.882 110.568 168.214 111.131C169.557 111.685 170.592 112.48 171.321 113.515C172.06 114.541 172.429 115.708 172.429 117.016C172.429 118.951 171.633 120.5 170.041 121.662C168.459 122.816 166.284 123.392 163.516 123.392H160.019ZM160.019 119.7H163.61C164.671 119.7 165.477 119.469 166.029 119.005C166.591 118.542 166.872 117.888 166.872 117.044C166.872 116.117 166.586 115.377 166.013 114.823C165.441 114.269 164.661 113.987 163.672 113.978H160.019V119.7Z" fill="#383837"/>
<path d="M189.459 121.717H180.843V126.444H191.02V130.123H175.364V110.286H191.051V113.978H180.843V118.161H189.459V121.717Z" fill="#383837"/>
<path d="M204.319 115.79C204.319 115.163 204.039 114.659 203.477 114.278C202.925 113.896 202.176 113.706 201.229 113.706C200.344 113.706 199.631 113.892 199.09 114.264C198.56 114.628 198.294 115.109 198.294 115.708H192.831C192.831 114.619 193.185 113.642 193.892 112.779C194.61 111.916 195.62 111.244 196.921 110.763C198.221 110.272 199.657 110.027 201.229 110.027C203.934 110.027 206.037 110.522 207.535 111.512C209.044 112.502 209.798 113.887 209.798 115.668C209.798 116.576 209.491 117.407 208.877 118.161C208.274 118.906 207.436 119.496 206.364 119.932C207.592 120.313 208.529 120.895 209.174 121.676C209.83 122.448 210.157 123.411 210.157 124.564C210.157 126.344 209.346 127.761 207.722 128.815C206.099 129.859 203.934 130.381 201.229 130.381C198.721 130.381 196.64 129.868 194.985 128.842C193.33 127.807 192.503 126.399 192.503 124.619H197.998C197.998 125.209 198.299 125.708 198.903 126.117C199.507 126.517 200.282 126.717 201.229 126.717C202.249 126.717 203.076 126.508 203.711 126.09C204.345 125.672 204.663 125.127 204.663 124.455C204.663 123.474 204.392 122.784 203.851 122.384C203.31 121.975 202.519 121.771 201.479 121.771H198.56V118.229H201.666C203.435 118.183 204.319 117.371 204.319 115.79Z" fill="#383837"/>
<path d="M226.719 110.286H232.198V130.123H226.719V117.616L218.555 130.123H213.076V110.286H218.555V122.807L226.719 110.286Z" fill="#383837"/>
<path d="M257.158 135H252.241V130.123H239.863V134.986H234.79L234.399 126.444H236.007C236.85 125.954 237.526 125.114 238.036 123.924C238.557 122.725 238.926 121.008 239.145 118.774L239.847 110.286H255.316V126.444H257.736L257.158 135ZM242.204 126.444H249.853V113.978H245.014L244.592 118.937C244.28 122.153 243.484 124.655 242.204 126.444Z" fill="#383837"/>
<path d="M273.72 121.717H265.103V126.444H275.281V130.123H259.624V110.286H275.312V113.978H265.103V118.161H273.72V121.717Z" fill="#383837"/>
<path d="M296.51 130.123H291.062V121.839H282.992V130.123H277.513V110.286H282.992V118.161H291.062V110.286H296.51V130.123Z" fill="#383837"/>
<path d="M317.365 113.978H310.543V130.123H305.064V113.978H298.368V110.286H317.365V113.978Z" fill="#383837"/>
<path d="M337.641 123.406C337.569 124.787 337.142 126.008 336.361 127.071C335.581 128.124 334.483 128.942 333.068 129.523C331.663 130.104 330.055 130.395 328.244 130.395C325.258 130.395 322.906 129.546 321.189 127.847C319.472 126.149 318.613 123.751 318.613 120.654V119.673C318.613 117.729 318.998 116.031 319.768 114.578C320.549 113.115 321.668 111.989 323.124 111.199C324.581 110.4 326.267 110 328.182 110C330.94 110 333.156 110.636 334.832 111.907C336.507 113.17 337.459 114.914 337.688 117.139H332.225C332.183 115.931 331.835 115.064 331.179 114.537C330.523 114.01 329.524 113.747 328.182 113.747C326.819 113.747 325.82 114.192 325.185 115.082C324.55 115.972 324.217 117.393 324.186 119.346V120.749C324.186 122.866 324.488 124.378 325.091 125.286C325.705 126.194 326.756 126.649 328.244 126.649C329.504 126.649 330.466 126.39 331.132 125.872C331.798 125.354 332.152 124.532 332.194 123.406H337.641Z" fill="#383837"/>
<path d="M348.272 122.275H345.68V130.123H340.201V110.286H345.68V117.956H347.788L352.158 110.286H358.793L352.549 119.441L359.573 130.123H353.095L348.272 122.275Z" fill="#383837"/>
<path d="M374.262 110.286H379.741V130.123H374.262V117.616L366.098 130.123H360.619V110.286H366.098V122.807L374.262 110.286Z" fill="#383837"/>
<path d="M391.854 116.88L395.569 110.286H401.828L395.475 120.123L402 130.123H395.678L391.854 123.406L388.029 130.123H381.723L388.232 120.123L381.895 110.286H388.139L391.854 116.88Z" fill="#383837"/>
</svg>
